<?xml version="1.0" encoding="utf-8"?>
<!-- Generator: Adobe Illustrator 22.1.0, SVG Export Plug-In . SVG Version: 6.00 Build 0)  -->
<svg version="1.1" id="Layer_1" xmlns="http://www.w3.org/2000/svg" xmlns:xlink="http://www.w3.org/1999/xlink" x="0px" y="0px"
	 viewBox="0 0 120 39" style="enable-background:new 0 0 120 39;" xml:space="preserve">
<style type="text/css">
	.st0{fill:#00467F;}
</style>
<g>
	<path class="st0" d="M24.4,25.9c0-1-0.6-1.4-1.4-1.4c-1,0-1.5,0.5-1.5,1c0,0.6,0.4,0.8,1.1,1c1.3,0.4,3.5,0.8,5.2,1.5
		c2.1,0.9,3,2.3,3,4.3c0,4-3.3,5.7-7.9,5.7c-4,0-7.6-1.2-7.6-5.5h6.2c0,0.5,0.1,0.9,0.3,1.2c0.2,0.3,0.7,0.5,1.3,0.5
		c1,0,1.6-0.6,1.6-1.3c0-0.6-0.5-0.9-1.1-1.1l-4.6-1.4c-2.5-0.8-3.4-2.3-3.4-4.4c0-3.4,2.7-5.3,7.5-5.3c4.1,0,7.2,1.3,7.2,5.1H24.4z
		"/>
	<path class="st0" d="M46.9,32.2c0,4-2.8,5.9-7.8,5.9c-5,0-7.8-2-7.8-5.9V21.2h6.5v10.6c0,1.3,0.6,1.8,1.3,1.8
		c0.7,0,1.3-0.5,1.3-1.8V21.2h6.5V32.2z"/>
	<path class="st0" d="M47.7,21.2h9.5c4,0,5.8,2.3,5.8,5.4c0,3.3-2.1,5.5-6.7,5.5h-2.1v5.5h-6.5V21.2z M54.6,28.4
		c1.7,0,2.3-0.6,2.3-1.8c0-1.2-0.5-1.7-2-1.7h-0.7v3.4H54.6z"/>
	<path class="st0" d="M63.7,21.2h9.5c4,0,5.8,2.3,5.8,5.4c0,3.3-2.1,5.5-6.7,5.5h-2.1v5.5h-6.5V21.2z M70.5,28.4
		c1.7,0,2.3-0.6,2.3-1.8c0-1.2-0.5-1.7-2-1.7h-0.7v3.4H70.5z"/>
	<path class="st0" d="M79.6,21.2h6.5v10.9h5.4v5.5H79.6V21.2z"/>
	<path class="st0" d="M93.7,32l-5.5-10.7h6.7l1.7,3.9l1.6-3.9h7.2L100.2,32v5.7h-6.5V32z"/>
	<path class="st0" d="M102.9,37.5c-1,0-1.8-0.8-1.8-1.8c0-1,0.8-1.8,1.8-1.8c1,0,1.8,0.8,1.8,1.8C104.7,36.7,103.9,37.5,102.9,37.5z
		 M102.9,34.2c-0.8,0-1.5,0.7-1.5,1.5c0,0.8,0.7,1.5,1.5,1.5s1.5-0.7,1.5-1.5C104.4,34.8,103.8,34.2,102.9,34.2z M102.1,34.7h0.9
		c0.5,0,0.6,0.3,0.6,0.5c0,0.3-0.2,0.5-0.6,0.6v0c0.2,0.1,0.3,0.2,0.5,0.5l0.2,0.4h-0.4l-0.2-0.3c-0.2-0.4-0.3-0.5-0.6-0.5h-0.2v0.8
		h-0.3V34.7z M102.9,35.6c0.2,0,0.4-0.1,0.4-0.3c0-0.2-0.1-0.3-0.3-0.3h-0.5v0.6H102.9z"/>
	<path class="st0" d="M36.6,1.8c-1-0.3-2.2-0.5-3.8-0.5h-8.5l-0.2,0.5H36.6z"/>
	<polygon class="st0" points="50.3,1.8 50.5,1.3 43.3,1.3 43.1,1.8 	"/>
	<polygon class="st0" points="118.4,1.8 118.6,1.3 102.5,1.3 102.3,1.8 	"/>
	<polygon class="st0" points="83.4,1.8 83.6,1.3 69.8,1.3 69.6,1.8 	"/>
	<path class="st0" d="M65.8,1.8c-0.8-0.4-1.9-0.5-3.3-0.5H51.8l-0.2,0.5H65.8z"/>
	<path class="st0" d="M98,1.8c-1.1-0.7-2.7-1-4.5-1c-1.8,0-3.6,0.4-5.2,1H98z"/>
	<path class="st0" d="M117.2,4.5l1.1-2.4h-3.9h-12.2h-3.7H87.7h-4.4H69.5h-3.1H51.4h-1.3H43h-5.7H24H8.3L8.1,2.7h15.7l-0.8,1.9h16.5
		c-0.2-0.7-0.6-1.4-1.2-1.9h4.5l-0.8,1.9h7.2l0.8-1.9h1.3l-0.8,1.9h16.8c0.2-0.8,0.1-1.4-0.3-1.9h2.4l-0.8,1.9h13.8L83,2.7h3.6
		c-0.9,0.5-1.8,1.2-2.6,1.9h15.6c0-0.8-0.3-1.4-0.7-1.9h2.9l-0.8,1.9H117.2z"/>
	<path class="st0" d="M22.6,5.4l-0.8,1.8h7.1l0.8-1.8h0.7c1.2,0,1.6,0.4,1.8,1.2c0,0.2,0,0.4,0,0.6h7.4c0.1-0.7,0.2-1.3,0.1-1.8h2
		l-0.8,1.8h7.2l0.8-1.8H50l-0.8,1.8h7L57,5.4h0.7c1.4,0,2.2,0.3,1.6,1.6c0,0.1-0.1,0.1-0.1,0.2H66c0.3-0.4,0.5-0.8,0.7-1.3
		c0.1-0.2,0.2-0.4,0.2-0.5h1.1l-0.8,1.8h6.9L74.7,6h6.9l0.3-0.7h1.3c-0.5,0.6-1,1.2-1.5,1.8h7.4c0.7-1,1.5-1.6,2.5-1.6
		c0.7,0,1.3,0.3,0.9,1.6h6.6c0.2-0.7,0.4-1.3,0.4-1.8h1.1l-0.4,0.8h4.5l-0.4,1h7.2l0.4-1h4.5l0.6-1.4h-5.5H101h-1.3H83.7h-1.6H68.3
		h-1.2H50.3H49h-7.2h-2.3H22.8H7.1L6.9,5.4H22.6z"/>
	<path class="st0" d="M17.9,16l-0.8,1.8h14.6c1-0.5,1.9-1.1,2.7-1.8h2.5l-0.8,1.8h7.2l0.8-1.8h1.3l-0.8,1.8h7l0.8-1.8h2.8
		c-0.2,0.6-0.4,1.2-0.5,1.8h7c0.1-0.6,0.3-1.2,0.5-1.8h1.2l-0.8,1.8h14l0.8-1.8h1.5c0.1,0.7,0.3,1.3,0.7,1.8h12.7
		c0.8-0.5,1.5-1.1,2.2-1.8h5.9l-0.8,1.8h7.2l1-2.4H103h-2.3h-5.7H78.9h-1.2h-14h-1.2h-7h-2.8h-7h-1.3h-7.2H35H18.1H2.4L2.2,16H17.9z
		"/>
	<path class="st0" d="M16.7,18.7l-0.3,0.8h8.9c1.5,0,3-0.3,4.4-0.8h5.9l-0.3,0.8h7.2l0.3-0.8h1.3l-0.3,0.8h7l0.3-0.8h3.3
		c-0.1,0.3-0.1,0.5-0.1,0.8h7c0-0.3,0.1-0.5,0.1-0.8h0.7l-0.3,0.8h14l0.3-0.8h4.2c1,0.8,2.6,1.2,4.7,1.2c1.9,0,3.9-0.4,5.7-1.2h8.5
		L99,19.5h7.2l0.6-1.3h-3.9h-3.3h-7.7H79.8h-3.4h-14h-0.8h-7h-3.2h-7h-1.3h-7.2h-4.8H16.9H1.3L1,18.7H16.7z"/>
	<path class="st0" d="M19,13.4l-0.8,1.8h7l0.8-1.8h3.3c-0.2,0.3-0.5,0.6-0.7,0.8c-0.5,0.5-1.1,0.9-1.8,1h8.3
		c0.6-0.6,1.1-1.2,1.5-1.8H38l-0.8,1.8h7.2l0.8-1.8h1.3l-0.8,1.8h7l0.8-1.8h2.2c0.1,0.2,0.1,0.5,0,0.9c-0.1,0.3-0.2,0.6-0.3,1h7
		c0.2-0.7,0.4-1.3,0.6-1.8h1.5l-0.8,1.8h14l0.2-0.5h-7.1l0.6-1.4H79c-0.1,0.7-0.2,1.3-0.2,1.8h8.4c-1,0-1.2-0.7-0.9-1.8h3.4
		c-0.8,1.4-1.6,1.8-2.4,1.8h8c0.4-0.6,0.8-1.2,1.2-1.8h5.2l-0.8,1.8h7.2l1-2.4h-3.7h-3.5h-5.2H90h-3.5h-7.3h-7.5h-6.9h-1.6H46.7
		h-1.3h-7.2h-1.1h-7.4h-3.5h-7H3.6l-0.2,0.6H19z"/>
	<path class="st0" d="M20.2,10.7l-0.8,1.8h7l0.8-1.8h3.6c-0.3,0.7-0.6,1.3-0.9,1.8h7.4c0.4-0.6,0.7-1.2,1-1.8h0.9l-0.8,1.8h7.2
		l0.8-1.8h1.3l-0.8,1.8h16.4c0.1-0.8,0-1.5-0.6-1.8h3.1l-0.8,1.8h13.3l0.8-1.8h0.9c-0.3,0.6-0.5,1.2-0.6,1.8h7.3
		c0.2-0.6,0.4-1.2,0.7-1.8h15.5l-0.8,1.8h7.2l1-2.4h-5h-2.2H87.6h-7.5h-0.9H66h-4.4H47.9h-1.3h-7.2h-0.9h-7.4h-3.6h-7H4.8l-0.2,0.6
		H20.2z"/>
	<path class="st0" d="M21.4,8l-0.8,1.8h7L28.4,8h3.5c-0.1,0.5-0.4,1.1-0.7,1.8h7.4c0.3-0.6,0.5-1.2,0.6-1.8h1.1l-0.8,1.8h7.2L47.6,8
		h1.3L48,9.9h14.4c1.2-0.4,2.1-1.1,2.9-1.8h1.6l-0.8,1.8h13.3L80.2,8h1.1c-0.4,0.6-0.7,1.2-1,1.8h7.4C88,9.2,88.3,8.6,88.6,8H104
		l-0.8,1.8h7.2l1-2.4h-5.1h-2.1h-5.2h-6.6h-3.6h-7.4H74h-6.9h-1.3h-6.7h-3h-7h-1.3h-7.2h-1.2H32h-3.3h-7.1H6L5.7,8H21.4z M55.9,8
		h2.7c-0.7,0.6-1.5,0.8-2.5,0.8h-0.6L55.9,8z"/>
</g>
</svg>
