<svg width="230" height="28" viewBox="0 0 260 32" xmlns="http://www.w3.org/2000/svg">
    <title>Northwestern Mutual Logo</title>
    <g>
        <path fill="#FFFFFF" d="M9.2,14.5 C11.9,14.5 14.2,18.8 14.6,25.6 L14.7,25.6 C15.1,24.2 15.2,22.8 15.2,21.4 C15.2,16.5 12.9,12.1 9.8,12.1 C6.9,12.1 6.6,14.5 7.3,15.6 C7.6,15.2 8.1,14.5 9.2,14.5 L9.2,14.5 Z M12.2,26.7 C12.3,26.1 12.4,25.6 12.4,24.7 C12.4,21.6 10.5,16.6 7,16.6 C4.3,16.6 3.9,19.2 4.8,20 C5,19.4 5.6,18.7 6.7,18.7 C9.6,18.7 11.7,23.2 12.2,26.7 L12.2,26.7 L12.2,26.7 Z M29.9,15.6 C30.2,15.2 30.3,14.7 30.3,14.4 C30.3,13.2 29.2,12.1 27.6,12.1 C22.9,12.1 21.2,20.3 22.5,25.6 L22.6,25.6 C23.1,18.4 25.4,14.5 28,14.5 C29.3,14.4 29.8,15.3 29.9,15.6 L29.9,15.6 Z M30.1,16.7 C25.7,16.7 24,24.2 24.9,26.7 L25,26.7 C25.5,22.9 27.6,18.7 30.3,18.7 C31.8,18.7 32.2,19.6 32.2,20 C33.2,19.1 32.6,16.7 30.1,16.7 L30.1,16.7 Z M19.4,29.3 C16.7,29.3 14,29.9 11.7,31.4 L11.7,31.5 C12.8,31.3 15.5,31 18.8,31 C22.4,31 23.7,31.5 24.3,31.5 C24.7,31.5 24.9,31.3 24.9,30.9 C24.9,29.7 22.3,29.3 19.4,29.3 L19.4,29.3 Z M19.4,26.5 C17.1,26.5 14,27.1 11.7,28.6 L11.7,28.7 C12.6,28.6 15.6,28.2 18.9,28.2 C22,28.2 23.8,28.7 24.3,28.7 C24.7,28.7 24.9,28.5 24.9,28.1 C24.9,26.9 22.3,26.5 19.4,26.5 L19.4,26.5 Z M29.9,8.6 C29.6,8.7 29.1,9.2 29.1,9.9 C29.1,10.8 29.7,12.5 32.2,12.5 C34.8,12.5 36.5,10.6 36.5,8 C36.5,5.4 34.6,3.1 30.5,3.1 C25.6,3.1 19.3,7.5 19.3,18.1 C19.3,20.1 19.5,22.3 20,24.7 L20.1,24.7 C20.1,11.7 25,5.5 30.3,5.5 C32.6,5.5 33.8,6.9 33.8,8.4 C33.8,9.8 33,10.8 31.7,10.8 C30.2,10.8 29.7,9.5 29.9,8.6 L29.9,8.6 Z M7,10.2 C6.8,10.5 6.2,11 5.2,11 C4,11 3,10 3,8.6 C3,7.3 4.1,6 6.1,6 C11.1,6 17,13.2 17,22.3 C17,22.9 17,23.9 16.9,24.7 L17,24.7 C17.5,23.1 18,20.7 18,19 C18,11 12.5,3.3 6.1,3.3 C2.3,3.3 0.4,5.8 0.4,8.1 C0.4,10.6 1.9,12.5 4.2,12.5 C6,12.5 7,11.2 7,10.2 L7,10.2 Z M6.3,0.6 C5.8,0.6 5.5,0.9 5.5,1.2 C5.5,1.7 5.8,1.9 6.4,2.1 C8.2,2.8 11.6,3.3 15.4,3.3 C22.2,3.3 29.2,2.3 32.2,1.1 L32.2,1 C29.7,1.2 25.4,1.5 18.5,1.5 C9.1,1.5 7.2,0.6 6.3,0.6 L6.3,0.6 Z M11.7,4.2 L11.7,4.2 C12.5,4.6 16.2,6.2 17.9,12.4 C18,12.8 18.2,12.9 18.4,12.9 C18.8,12.9 19,12.6 19,12.1 C19,9.2 17.4,6.7 16.1,5.6 C14.6,4.4 12.8,4.1 11.7,4.2 L11.7,4.2 Z M20.9,5.1 C22.1,3.9 23.8,3.4 25.6,3.6 L25.6,3.7 C25,3.9 23.6,4.4 22.1,5.9 C20.9,7.2 20.1,8.7 19.7,10 C19.3,7.4 20.1,5.9 20.9,5.1 L20.9,5.1 Z"></path>
        <path fill="#ffffff" d="M43.8,15.5 L41.8,15.5 L41.8,14.1 L46.4,14.1 L46.4,15.5 L54.5,24.3 L54.5,15.5 L52.5,15.5 L52.5,14.1 L58.1,14.1 L58.1,15.5 L56.1,15.5 L56.1,28.4 L54.6,28.4 L45.4,18.4 L45.4,27.1 L47.3,27.1 L47.3,28.4 L41.8,28.4 L41.8,27.1 L43.8,27.1 L43.8,15.5 Z M58.4,23.3 C58.4,25.5 59.9,28.7 64.1,28.7 C68.1,28.7 69.8,25.9 69.8,23.3 C69.8,20.6 67.9,17.9 64.1,17.9 C60.1,17.9 58.4,20.9 58.4,23.3 Z M61.5,23.3 C61.5,20.9 62.3,19.1 64.2,19.1 C65.9,19.1 66.8,20.7 66.8,23.5 C66.8,26.1 65.8,27.7 64.2,27.7 C62.5,27.6 61.5,26 61.5,23.3 Z M72.5,19.3 L70.7,19.3 L70.7,18.2 L75.2,18.2 L75.2,19.9 C75.6,19.3 76,18.8 76.4,18.4 C76.8,18.1 77.2,17.9 77.7,17.9 C78.2,17.9 78.9,18.3 79.3,18.9 C79.2,19.8 78.8,21 78.3,21.8 C77.7,20.7 77.3,20.3 76.6,20.3 C76,20.3 75.7,20.6 75.1,21.3 L75.1,27.3 L77,27.3 L77,28.4 L70.7,28.4 L70.7,27.3 L72.5,27.3 L72.5,19.3 Z M80.1,19.6 L84.4,15.5 L84.4,18.3 L87.3,18.3 L87.3,19.6 L84.4,19.6 L84.4,25.4 C84.4,26.7 84.9,27.6 85.8,27.6 C86.6,27.6 87.1,26.8 87.5,26.8 C87.7,26.8 87.8,26.9 87.8,27.1 C87.8,27.6 86.9,28.7 84.8,28.7 C82.7,28.7 81.7,27.6 81.7,25.3 L81.7,19.6 L80.1,19.6 L80.1,19.6 Z M93.2,19.4 C94.5,18.5 95.8,17.9 96.8,17.9 C98.4,17.9 99.6,19.2 99.6,20.9 L99.6,27.3 L101.4,27.3 L101.4,28.4 L95.4,28.4 L95.4,27.3 L96.9,27.3 L96.9,21.5 C96.9,20.3 96.3,19.7 95.3,19.7 C94.7,19.7 94,20 93.1,20.5 L93.1,27.3 L94.6,27.3 L94.6,28.4 L88.6,28.4 L88.6,27.3 L90.4,27.3 L90.4,13.8 L88.6,13.8 L88.6,12.7 L93.2,12.7 L93.2,19.4 L93.2,19.4 Z M100.7,19.3 L100.7,18.2 L106.3,18.2 L106.3,19.3 L104.9,19.3 L107.2,24.4 L109.1,19.3 L107.7,19.3 L107.7,18.2 L112.9,18.2 L112.9,19.3 L111.6,19.3 L113.9,24.4 L115.8,19.3 L114.2,19.3 L114.2,18.2 L118.4,18.2 L118.4,19.3 L117,19.3 L113.5,28.6 L112.9,28.6 L109.5,21.4 L106.8,28.6 L106.3,28.6 L102,19.3 L100.7,19.3 Z M128.1,22.7 C127.8,19.8 126,18 123.4,18 C120.6,18 118.7,20.1 118.7,23.2 C118.7,25.6 120,28.8 124.2,28.8 C125.7,28.8 126.7,28.5 128.1,27.7 L128.3,26.4 C127.5,27 126.1,27.5 125.1,27.5 C123.1,27.5 121.7,25.6 121.7,22.8 L128.1,22.8 L128.1,22.7 Z M121.7,21.6 C121.7,20.3 122.3,19.1 123.4,19.1 C124.4,19.1 125.1,20 125.3,21.6 L121.7,21.6 Z M129.9,25.4 L130.6,25.4 C131,26.8 132,27.6 133.1,27.6 C133.9,27.6 134.5,27.2 134.5,26.4 C134.5,24.7 129.8,24.3 129.8,21.1 C129.8,19.3 131.3,18 133.3,18 C134,18 134.6,18.2 135.3,18.6 L135.5,18.1 L136.3,18.1 L136.3,20.8 L135.5,20.8 C135.1,19.6 134.6,19.1 133.6,19.1 C132.7,19.1 132.2,19.5 132.2,20.1 C132.2,22.2 137,22.1 137,25.6 C137,27.5 135.5,28.8 133.4,28.8 C132.5,28.8 131.7,28.6 130.9,28.2 L130.8,28.7 L130,28.7 L130,25.4 L129.9,25.4 Z M137.7,19.6 L142,15.5 L142,18.3 L144.9,18.3 L144.9,19.6 L142,19.6 L142,25.4 C142,26.7 142.5,27.6 143.4,27.6 C144.2,27.6 144.7,26.8 145.1,26.8 C145.3,26.8 145.4,26.9 145.4,27.1 C145.4,27.6 144.5,28.7 142.4,28.7 C140.3,28.7 139.3,27.6 139.3,25.3 L139.3,19.6 L137.7,19.6 L137.7,19.6 Z M155.1,22.7 C154.8,19.8 153,18 150.4,18 C147.6,18 145.7,20.1 145.7,23.2 C145.7,25.6 147,28.8 151.2,28.8 C152.7,28.8 153.7,28.5 155,27.7 L155.2,26.4 C154.4,27 153,27.5 151.9,27.5 C149.9,27.5 148.5,25.6 148.5,22.8 L155.1,22.8 L155.1,22.7 Z M148.7,21.6 C148.7,20.3 149.3,19.1 150.4,19.1 C151.4,19.1 152.1,20 152.3,21.6 L148.7,21.6 Z M158.2,19.3 L156.4,19.3 L156.4,18.2 L160.9,18.2 L160.9,19.9 C161.3,19.3 161.7,18.8 162.2,18.4 C162.6,18.1 163,17.9 163.5,17.9 C164,17.9 164.7,18.3 165.1,18.9 C165,19.8 164.6,21 164.1,21.8 C163.5,20.7 163.1,20.3 162.4,20.3 C161.8,20.3 161.5,20.6 160.9,21.3 L160.9,27.3 L162.7,27.3 L162.7,28.4 L156.4,28.4 L156.4,27.3 L158.2,27.3 L158.2,19.3 L158.2,19.3 Z M168,19.3 L166.2,19.3 L166.2,18.2 L170.7,18.2 L170.7,19.4 C172.1,18.5 173,17.9 174.3,17.9 C176.1,17.9 177.1,19.1 177.1,21 L177.1,27.3 L178.9,27.3 L178.9,28.4 L172.9,28.4 L172.9,27.3 L174.4,27.3 L174.4,21.2 C174.4,20.2 173.7,19.6 172.9,19.6 C172.2,19.6 171.6,19.8 170.7,20.4 L170.7,27.3 L172.1,27.3 L172.1,28.4 L166.1,28.4 L166.1,27.3 L167.9,27.3 L167.9,19.3 L168,19.3 Z M187,15.5 L185.1,15.5 L185.1,14.1 L190.3,14.1 L190.3,15.5 L194.4,23.9 L198.4,15.5 L198.4,14.1 L203.8,14.1 L203.8,15.5 L201.9,15.5 L201.9,27.1 L203.8,27.1 L203.8,28.4 L197,28.4 L197,27.1 L199,27.1 L199,18.1 L198.9,18.1 L194,28.4 L193.5,28.4 L188.7,18.5 L188.7,27.1 L190.6,27.1 L190.6,28.4 L185.1,28.4 L185.1,27.1 L187,27.1 L187,15.5 Z M216.8,27.3 L216.8,28.4 L212.3,28.4 L212.3,27.4 C211,28.3 209.8,28.7 208.8,28.7 C206.6,28.7 205.9,27.3 205.9,25.8 L205.9,19.3 L204,19.3 L204,18.2 L208.5,18.2 L208.5,25.6 C208.5,26.6 209,27.2 209.9,27.2 C210.5,27.2 211.2,26.9 212.2,26.3 L212.2,19.2 L210.4,19.2 L210.4,18.1 L214.9,18.1 L214.9,27.2 L216.8,27.2 L216.8,27.3 Z M217,19.6 L221.3,15.5 L221.3,18.3 L224.2,18.3 L224.2,19.6 L221.3,19.6 L221.3,25.4 C221.3,26.7 221.8,27.6 222.7,27.6 C223.5,27.6 224,26.8 224.4,26.8 C224.6,26.8 224.7,26.9 224.7,27.1 C224.7,27.6 223.8,28.7 221.7,28.7 C219.6,28.7 218.6,27.6 218.6,25.3 L218.6,19.6 L217,19.6 L217,19.6 Z M237.8,27.3 L237.8,28.4 L233.3,28.4 L233.3,27.4 C232,28.3 230.8,28.7 229.8,28.7 C227.6,28.7 226.9,27.3 226.9,25.8 L226.9,19.3 L225.1,19.3 L225.1,18.2 L229.6,18.2 L229.6,25.6 C229.6,26.6 230.1,27.2 231,27.2 C231.6,27.2 232.3,26.9 233.3,26.3 L233.3,19.2 L231.5,19.2 L231.5,18.1 L236,18.1 L236,27.2 L237.8,27.2 L237.8,27.3 Z M248.4,27 C248.1,27.1 247.9,27.2 247.6,27.2 C247,27.2 246.4,26.7 246.4,25.9 L246.4,21.4 C246.4,19.4 244.9,18 243,18 C241.7,18 240.1,18.7 238.9,19.8 L239.1,20.6 C240.3,19.9 241.2,19.6 241.9,19.6 C243,19.6 243.7,20.3 243.7,21.6 L243.7,22.8 L241.2,23.4 C239.3,23.9 238.5,24.7 238.5,26 C238.5,27.6 239.5,28.8 240.9,28.8 C241.8,28.8 242.7,28.4 243.9,27.5 C244.2,28.3 245,28.8 246,28.8 C246.8,28.8 247.6,28.6 248.4,28.1 L248.4,27 L248.4,27 Z M243.7,23.9 L243.7,26.4 C243.2,26.8 242.6,27.1 242.2,27.1 C241.6,27.1 241.1,26.5 241.1,25.9 C241.1,24.8 241.6,24.3 243.7,23.9 Z M250.9,13.8 L249.2,13.8 L249.2,12.7 L253.7,12.7 L253.7,27.3 L255.4,27.3 L255.4,28.4 L249.2,28.4 L249.2,27.3 L250.9,27.3 L250.9,13.8 Z M257.5,14.4 L257.9,14.4 C258,14.4 258.3,14.4 258.3,14.1 C258.3,14 258.2,13.8 258,13.8 L257.5,13.8 L257.5,14.4 L257.5,14.4 Z M257.5,15.5 L257.1,15.5 L257.1,13.6 L258,13.6 C258.1,13.6 258.7,13.6 258.7,14.2 C258.7,14.6 258.4,14.7 258.3,14.7 L258.7,15.5 L258.3,15.5 L258,14.7 L257.5,14.7 L257.5,15.5 L257.5,15.5 Z M257.9,16 C258.7,16 259.4,15.3 259.4,14.5 C259.4,13.7 258.7,13 257.9,13 C257.1,13 256.4,13.7 256.4,14.5 C256.4,15.4 257,16 257.9,16 L257.9,16 Z M257.9,12.7 C258.9,12.7 259.7,13.5 259.7,14.5 C259.7,15.5 258.9,16.3 257.9,16.3 C256.9,16.3 256.1,15.5 256.1,14.5 C256.1,13.5 256.9,12.7 257.9,12.7 L257.9,12.7 Z"></path>
    </g>
</svg>
